<svg xmlns="http://www.w3.org/2000/svg" viewBox="0 -0.5 48 48" shape-rendering="crispEdges" width="48" height="48"><metadata><rdf:RDF xmlns:rdf="http://www.w3.org/1999/02/22-rdf-syntax-ns#" xmlns:dc="http://purl.org/dc/elements/1.1/"><rdf:Description><dc:creator>RealFaviconGenerator</dc:creator><dc:source>https://realfavicongenerator.net</dc:source></rdf:Description></rdf:RDF></metadata><path stroke="#7b7d7b" d="M14 0h28M13 1h1M41 1h1M12 2h1M40 2h2M11 3h1M39 3h3M10 4h1M39 4h3M10 5h1M39 5h3M10 6h1M14 6h22M39 6h3M10 7h1M35 7h1M39 7h3M10 8h1M35 8h1M39 8h3M10 9h1M35 9h1M39 9h3M10 10h1M35 10h1M39 10h3M10 11h1M35 11h1M39 11h3M10 12h1M19 12h1M35 12h1M39 12h3M10 13h1M19 13h1M35 13h1M39 13h3M10 14h1M19 14h1M35 14h1M39 14h3M10 15h1M19 15h1M22 15h1M35 15h1M39 15h3M10 16h1M19 16h1M22 16h1M35 16h1M39 16h3M10 17h1M22 17h1M35 17h1M39 17h3M10 18h1M22 18h1M35 18h1M39 18h3M10 19h1M22 19h1M35 19h1M39 19h3M10 20h1M35 20h1M39 20h3M10 21h1M35 21h1M39 21h3M10 22h1M14 22h22M39 22h3M10 23h1M39 23h3M10 24h1M39 24h3M43 24h3M10 25h1M39 25h2M42 25h3M10 26h30M41 26h3M45 26h1M40 27h3M44 27h2M7 28h35M43 28h3M6 29h1M42 29h4M5 30h1M42 30h4M5 31h1M42 31h4M5 32h1M42 32h4M5 33h1M23 33h15M42 33h4M5 34h1M42 34h4M5 35h1M32 35h2M42 35h4M5 36h1M42 36h4M5 37h1M42 37h4M5 38h1M41 38h5M5 39h1M7 39h1M10 39h1M13 39h1M16 39h1M19 39h1M22 39h1M25 39h1M28 39h1M31 39h1M34 39h1M37 39h1M40 39h5M4 40h1M6 40h1M9 40h1M12 40h1M15 40h1M18 40h1M21 40h1M24 40h1M27 40h1M30 40h1M33 40h1M36 40h1M39 40h5M3 41h1M5 41h1M8 41h1M11 41h1M14 41h1M17 41h1M20 41h1M23 41h1M26 41h1M29 41h1M32 41h1M35 41h1M38 41h5M2 42h1M4 42h1M7 42h1M10 42h1M13 42h1M16 42h1M19 42h1M22 42h1M25 42h1M28 42h1M31 42h1M34 42h1M37 42h5M1 43h1M3 43h1M6 43h1M9 43h1M12 43h1M15 43h1M18 43h1M21 43h1M24 43h1M27 43h1M30 43h1M33 43h1M36 43h5M0 44h1M2 44h1M4 44h2M7 44h2M10 44h2M13 44h2M16 44h2M19 44h2M22 44h2M25 44h2M28 44h2M31 44h2M34 44h3M38 44h2M0 45h1M38 45h1M0 46h1M37 46h1"></path><path stroke="#bdbebd" d="M14 1h26M13 2h26M12 4h27M12 5h27M12 6h2M37 6h2M12 7h2M37 7h2M12 8h2M37 8h2M12 9h2M37 9h2M12 10h2M37 10h2M12 11h2M37 11h2M12 12h2M37 12h2M12 13h2M37 13h2M12 14h2M37 14h2M12 15h2M37 15h2M12 16h2M37 16h2M12 17h2M37 17h2M12 18h2M37 18h2M12 19h2M37 19h2M12 20h2M37 20h2M12 21h2M37 21h2M12 22h2M37 22h2M12 23h2M37 23h2M12 24h27M12 25h27M45 25h1M44 26h1M43 27h1M42 28h1M41 29h1M7 30h35M7 31h35M7 32h35M7 33h16M38 33h4M7 34h4M14 34h9M38 34h4M7 35h4M14 35h18M34 35h8M7 36h4M14 36h28M7 37h35M7 38h34M37 44h1M37 45h1M1 46h36"></path><path stroke="#ffffff" d="M40 1h1M39 2h1M12 3h27M11 4h1M11 5h1M11 6h1M36 6h1M11 7h1M36 7h1M11 8h1M36 8h1M11 9h1M36 9h1M11 10h1M36 10h1M11 11h1M36 11h1M11 12h1M20 12h7M36 12h1M11 13h1M20 13h2M36 13h1M11 14h1M20 14h2M36 14h1M11 15h1M20 15h2M23 15h7M36 15h1M11 16h1M20 16h2M23 16h7M36 16h1M11 17h1M23 17h7M36 17h1M11 18h1M23 18h7M36 18h1M11 19h1M23 19h7M36 19h1M11 20h1M36 20h1M11 21h1M36 21h1M11 22h1M36 22h1M11 23h1M14 23h23M11 24h1M11 25h1M7 29h34M6 30h1M6 31h1M6 32h1M6 33h1M6 34h1M6 35h1M6 36h1M6 37h1M6 38h1M6 39h1M9 39h1M12 39h1M15 39h1M18 39h1M21 39h1M24 39h1M27 39h1M30 39h1M33 39h1M36 39h1M39 39h1M5 40h1M8 40h1M11 40h1M14 40h1M17 40h1M20 40h1M23 40h1M26 40h1M29 40h1M32 40h1M35 40h1M38 40h1M4 41h1M7 41h1M10 41h1M13 41h1M16 41h1M19 41h1M22 41h1M25 41h1M28 41h1M31 41h1M34 41h1M37 41h1M3 42h1M6 42h1M9 42h1M12 42h1M15 42h1M18 42h1M21 42h1M24 42h1M27 42h1M30 42h1M33 42h1M36 42h1M2 43h1M5 43h1M8 43h1M11 43h1M14 43h1M17 43h1M20 43h1M23 43h1M26 43h1M29 43h1M32 43h1M35 43h1M1 44h1M1 45h36"></path><path stroke="#000000" d="M42 1h1M42 2h1M42 3h1M42 4h1M42 5h1M42 6h1M14 7h21M42 7h1M14 8h1M42 8h1M14 9h1M42 9h1M14 10h1M19 10h9M42 10h1M14 11h1M19 11h9M42 11h1M14 12h1M27 12h1M42 12h1M14 13h1M30 13h1M42 13h1M14 14h1M30 14h1M42 14h1M14 15h1M30 15h1M42 15h1M14 16h1M30 16h1M42 16h1M14 17h1M19 17h3M30 17h1M42 17h1M14 18h1M30 18h1M42 18h1M14 19h1M30 19h1M42 19h1M14 20h1M22 20h9M42 20h1M14 21h1M42 21h1M42 22h1M42 23h1M42 24h1M41 25h1M46 25h1M40 26h1M46 26h1M10 27h30M46 27h1M46 28h1M46 29h1M46 30h1M46 31h1M46 32h1M46 33h1M23 34h15M46 34h1M46 35h1M46 36h1M46 37h1M46 38h1M8 39h1M11 39h1M14 39h1M17 39h1M20 39h1M23 39h1M26 39h1M29 39h1M32 39h1M35 39h1M38 39h1M45 39h1M7 40h1M10 40h1M13 40h1M16 40h1M19 40h1M22 40h1M25 40h1M28 40h1M31 40h1M34 40h1M37 40h1M44 40h1M6 41h1M9 41h1M12 41h1M15 41h1M18 41h1M21 41h1M24 41h1M27 41h1M30 41h1M33 41h1M36 41h1M43 41h1M5 42h1M8 42h1M11 42h1M14 42h1M17 42h1M20 42h1M23 42h1M26 42h1M29 42h1M32 42h1M35 42h1M42 42h1M4 43h1M7 43h1M10 43h1M13 43h1M16 43h1M19 43h1M22 43h1M25 43h1M28 43h1M31 43h1M34 43h1M41 43h1M3 44h1M6 44h1M9 44h1M12 44h1M15 44h1M18 44h1M21 44h1M24 44h1M27 44h1M30 44h1M33 44h1M40 44h1M39 45h1M38 46h1M1 47h37"></path><path stroke="#007d7b" d="M15 8h20M15 9h20M15 10h2M18 10h1M28 10h7M15 11h2M18 11h1M28 11h7M15 12h2M18 12h1M28 12h7M15 13h4M31 13h4M15 14h4M31 14h4M15 15h4M31 15h4M15 16h4M31 16h4M15 17h4M31 17h4M15 18h7M31 18h4M15 19h7M31 19h4M15 20h7M31 20h4M15 21h20"></path><path stroke="#00ffff" d="M17 10h1M17 11h1M17 12h1"></path><path stroke="rgba(255,255,255,0.01568627450980392)" d="M43 12h1M43 19h1M43 20h1"></path><path stroke="#00007b" d="M22 13h1M22 14h1"></path><path stroke="#0000ff" d="M23 13h7M23 14h7"></path><path stroke="rgba(255,255,255,0.03137254901960784)" d="M43 13h1M43 14h1"></path><path stroke="rgba(255,255,255,0.06274509803921569)" d="M43 15h1M43 16h1M43 17h1"></path><path stroke="rgba(255,255,255,0.047058823529411764)" d="M43 18h1"></path><path stroke="#00ff00" d="M11 34h3M11 35h3"></path><path stroke="#007d00" d="M11 36h3"></path><style>@media (prefers-color-scheme: light) { :root { filter: contrast(1) brightness(1); } }
</style></svg>